<svg id="Layer_1" data-name="Layer 1" xmlns="http://www.w3.org/2000/svg" viewBox="0 0 117.26 75.74"><defs><style>.cls-1{fill:#6f9a8d;}.cls-2{fill:#366644;}.cls-3{fill:#1e6751;}</style></defs><title>לוגו ללהב</title><path class="cls-1" d="M16.15,47.88a63,63,0,0,0,11,5.44A87.4,87.4,0,0,0,38.81,57a94.52,94.52,0,0,0,24.28,2.59A104.3,104.3,0,0,0,87.3,56.21l3-.77,2.93-.9c2-.56,3.88-1.3,5.81-2s3.82-1.48,5.73-2.22,3.74-1.65,5.62-2.48c-1.85.88-3.69,1.79-5.55,2.65s-3.75,1.67-5.67,2.39S95.3,54.4,93.34,55l-2.93.95-3,.83a101.53,101.53,0,0,1-24.33,3.57,92.74,92.74,0,0,1-24.44-2.78A73.5,73.5,0,0,1,16.15,47.88Z"/><path class="cls-2" d="M53,37.31a.37.37,0,0,1-.41.42H40.46a.37.37,0,0,1-.42-.42v-.22a.37.37,0,0,1,.42-.42h9.31v-12h-9c-.28,0-.41-.14-.41-.42v-.34a.36.36,0,0,1,.41-.41h9.7c.29,0,.43.13.43.41V36.67h1.62a.37.37,0,0,1,.41.42Z"/><path class="cls-2" d="M68.53,37.31a.37.37,0,0,1-.41.42h-.34a.38.38,0,0,1-.43-.42V24.68H55.9a.37.37,0,0,1-.42-.42v-.34c0-.28.14-.41.42-.41H68.12a.36.36,0,0,1,.41.41ZM58,37.31a.37.37,0,0,1-.41.42h-.34a.37.37,0,0,1-.43-.42V29.6a.38.38,0,0,1,.43-.43h.34c.27,0,.41.14.41.43Z"/><path class="cls-2" d="M83.11,33a4.78,4.78,0,0,1-4.78,4.78H75a.37.37,0,0,1-.42-.42v-.22a.37.37,0,0,1,.42-.42h3.18a3.7,3.7,0,0,0,2.69-1,3.61,3.61,0,0,0,1.07-2.71V24.68H72a.37.37,0,0,1-.42-.42V20.34a.37.37,0,0,1,.42-.42h.3a.37.37,0,0,1,.43.42v3.17h10c.28,0,.42.13.42.41Z"/><path class="cls-1" d="M31.62,48.18a.13.13,0,0,1-.15.15h-.13c-.09,0-.14,0-.14-.15V43.67H27.94V47c0,.87-.41,1.3-1.21,1.3h-.49a.13.13,0,0,1-.15-.15V48.1a.13.13,0,0,1,.15-.15h.39a.8.8,0,0,0,.89-.91V43.67H26.4c-.1,0-.15-.05-.15-.16v-.12c0-.1.05-.14.15-.14h5.07c.1,0,.15,0,.15.14Z"/><path class="cls-1" d="M34.37,45.7a.13.13,0,0,1-.15.15H34.1A.13.13,0,0,1,34,45.7v-2H32.84c-.1,0-.15-.05-.15-.16v-.12c0-.1.05-.14.15-.14h1.38c.1,0,.15,0,.15.14Z"/><path class="cls-1" d="M41,46.62a1.71,1.71,0,0,1-1.71,1.71H37.82c-.9,0-1.35-.54-1.35-1.61v-3h-.93a.14.14,0,0,1-.16-.16v-.12c0-.1,0-.14.16-.14h1.21a.12.12,0,0,1,.14.14v3.22a2.18,2.18,0,0,0,.07.61.92.92,0,0,0,.2.42.86.86,0,0,0,.35.23A1.35,1.35,0,0,0,38,48h1.14a1.43,1.43,0,0,0,1-.37,1.3,1.3,0,0,0,.38-1V43.67h-.44l-1.59,1.66c-.07.08-.14.09-.21,0l-.08-.08q-.1-.09,0-.21l1.7-1.8h.89c.1,0,.15,0,.15.14Z"/><path class="cls-1" d="M47.6,46.62a1.66,1.66,0,0,1-.49,1.22,1.55,1.55,0,0,1-1.18.49H44.54a1.41,1.41,0,0,1-1.1-.45,1.73,1.73,0,0,1-.4-1.19v-3H42.2c-.1,0-.15-.05-.15-.16v-.12c0-.1.05-.14.15-.14h5.25c.1,0,.15,0,.15.14Zm-.42-2.95H43.46v2.94c0,.89.41,1.34,1.24,1.34h1.14a1.28,1.28,0,0,0,1-.37,1.31,1.31,0,0,0,.38-1Z"/><path class="cls-1" d="M50.32,45.7a.13.13,0,0,1-.15.15h-.12a.13.13,0,0,1-.15-.15v-2H48.79c-.1,0-.15-.05-.15-.16v-.12c0-.1,0-.14.15-.14h1.38c.1,0,.15,0,.15.14Z"/><path class="cls-1" d="M55.46,46.62a1.71,1.71,0,0,1-1.7,1.71H52.57a.14.14,0,0,1-.16-.15V48.1a.14.14,0,0,1,.16-.15H53.7a1.3,1.3,0,0,0,1-.37,1.26,1.26,0,0,0,.38-1V43.67H51.49c-.1,0-.15-.05-.15-.16v-1.4a.13.13,0,0,1,.15-.15h.11a.13.13,0,0,1,.15.15v1.14h3.56c.1,0,.15,0,.15.14Z"/><path class="cls-1" d="M58.29,48.18a.13.13,0,0,1-.15.15H58a.13.13,0,0,1-.15-.15V43.67H56.66c-.1,0-.15-.05-.15-.16v-.12c0-.1.05-.14.15-.14h1.48c.1,0,.15,0,.15.14Z"/><path class="cls-1" d="M64.33,48.18a.13.13,0,0,1-.15.15h-.12a.13.13,0,0,1-.15-.15V43.67h-4.1c-.1,0-.15-.05-.15-.16v-.12c0-.1.05-.14.15-.14h4.37c.1,0,.15,0,.15.14Zm-3.76,0a.13.13,0,0,1-.15.15H60.3a.13.13,0,0,1-.15-.15V45.42a.13.13,0,0,1,.15-.15h.12a.13.13,0,0,1,.15.15Z"/><path class="cls-1" d="M73.06,48.18c0,.1,0,.15-.16.15h-.12c-.09,0-.14,0-.14-.15V43.67H69.38V47c0,.87-.41,1.3-1.21,1.3h-.49a.13.13,0,0,1-.15-.15V48.1a.13.13,0,0,1,.15-.15h.39A.8.8,0,0,0,69,47V43.67H67.83c-.09,0-.14-.05-.14-.16v-.12a.12.12,0,0,1,.14-.14H72.9c.11,0,.16,0,.16.14Z"/><path class="cls-1" d="M78.26,46.62a1.71,1.71,0,0,1-1.71,1.71H75.36a.13.13,0,0,1-.15-.15V48.1a.13.13,0,0,1,.15-.15H76.5a1.33,1.33,0,0,0,1-.37,1.3,1.3,0,0,0,.38-1V43.67H74.28c-.1,0-.15-.05-.15-.16v-1.4a.13.13,0,0,1,.15-.15h.11a.13.13,0,0,1,.15.15v1.14h3.57c.1,0,.15,0,.15.14Z"/><path class="cls-1" d="M84.22,48.18a.13.13,0,0,1-.15.15H79.75a.13.13,0,0,1-.15-.15V48.1a.13.13,0,0,1,.15-.15h4v-3a1.09,1.09,0,0,0-1.24-1.24H80.77v2.22a.13.13,0,0,1-.15.15H80.5a.13.13,0,0,1-.15-.15V43.67h-.87c-.1,0-.15-.05-.15-.16v-.12c0-.1,0-.14.15-.14h3.13a1.64,1.64,0,0,1,1.18.42,1.56,1.56,0,0,1,.43,1.17Z"/><path class="cls-1" d="M90.85,46.62a1.62,1.62,0,0,1-.5,1.21,1.65,1.65,0,0,1-1.21.5H87.68c-.91,0-1.36-.54-1.36-1.61v-3h-.93c-.1,0-.15-.05-.15-.16v-.12c0-.1.05-.14.15-.14H86.6a.12.12,0,0,1,.14.14v3.22a2.63,2.63,0,0,0,.07.61,1,1,0,0,0,.2.42.86.86,0,0,0,.35.23,1.41,1.41,0,0,0,.53.08H89a1.43,1.43,0,0,0,1-.37,1.3,1.3,0,0,0,.38-1V43.67H90L88.4,45.33c-.07.08-.14.09-.21,0l-.08-.08q-.1-.09,0-.21l1.7-1.8h.89c.1,0,.15,0,.15.14Z"/><path class="cls-1" d="M97.56,48.18a.13.13,0,0,1-.15.15H94.73a.13.13,0,0,1-.15-.15V48.1a.13.13,0,0,1,.15-.15h2.41V45a1.18,1.18,0,0,0-1.34-1.33h-1a1.46,1.46,0,0,0-1,.32,1.35,1.35,0,0,0-.39,1v3.15a.13.13,0,0,1-.15.15h-.12a.13.13,0,0,1-.15-.15V43.67h-1c-.1,0-.15-.05-.15-.16v-.12c0-.1,0-.14.15-.14H93.3c.1,0,.15,0,.15.14v.69a1.46,1.46,0,0,1,1.45-.83H96a1.39,1.39,0,0,1,1.6,1.55Z"/><path class="cls-3" d="M16,47.59a6.41,6.41,0,0,0,2.75-5,11.21,11.21,0,0,0-.21-2.94l-.36-1.44-.47-1.42.63.12-1,1.14-.86,1.22a11.84,11.84,0,0,0-1.26,2.67A6.41,6.41,0,0,0,16,47.59Zm0,0a5.47,5.47,0,0,1-1.4-2.72,7.3,7.3,0,0,1,.1-3.12,11.13,11.13,0,0,1,1.21-2.89c.29-.43.58-.87.88-1.29l1-1.2.42-.52.21.63L18.88,38c.13.51.24,1,.35,1.52a10.6,10.6,0,0,1,.08,3.13,7.18,7.18,0,0,1-1,3A5.4,5.4,0,0,1,16,47.59Z"/><path class="cls-3" d="M16.25,47.53a5.77,5.77,0,0,1-2.71.17,10.1,10.1,0,0,1-2.6-.88,13.78,13.78,0,0,1-2.31-1.49c-.35-.29-.69-.6-1-.9l-1-1-.71-.71,1,.08,1.36.11,1.36.2a13.25,13.25,0,0,1,2.62.81,9.59,9.59,0,0,1,2.36,1.41A5.74,5.74,0,0,1,16.25,47.53Zm0,0a6.15,6.15,0,0,0-1.85-1.88,9.16,9.16,0,0,0-2.34-1.17,16.86,16.86,0,0,0-2.54-.64l-1.3-.17L6.9,43.58,7.19,43l.92.95,1,.89a16.91,16.91,0,0,0,2.14,1.52,9.46,9.46,0,0,0,2.4,1A6.13,6.13,0,0,0,16.25,47.53Z"/></svg>