<svg id="Layer_1" data-name="Layer 1" xmlns="http://www.w3.org/2000/svg" viewBox="0 0 117.26 75.74"><defs><style>.cls-1{fill:#ffc6c7;}.cls-2{fill:#1e6751;}.cls-3{fill:#4e7557;}</style></defs><title>לוגו ללהב</title><path class="cls-1" d="M26,48.6s3.67-.78,2.87-6.61C24.1,45.39,26,48.6,26,48.6Z"/><path class="cls-1" d="M26.21,48.59s-2.75.3-5.24-4.05C25.81,45.85,26.21,48.59,26.21,48.59Z"/><path class="cls-2" d="M41.11,48.75a.13.13,0,0,1-.15.15h-.12a.13.13,0,0,1-.15-.15V44.23H37.43V47.6c0,.87-.4,1.3-1.21,1.3h-.49a.13.13,0,0,1-.15-.15v-.08a.13.13,0,0,1,.15-.15h.39a.8.8,0,0,0,.89-.91V44.23H35.89a.13.13,0,0,1-.15-.15V44a.13.13,0,0,1,.15-.15H41a.13.13,0,0,1,.15.15Z"/><path class="cls-2" d="M43.87,46.27c0,.1,0,.15-.16.15H43.6a.13.13,0,0,1-.15-.15v-2H42.34a.13.13,0,0,1-.15-.15V44a.13.13,0,0,1,.15-.15h1.37c.11,0,.16,0,.16.15Z"/><path class="cls-2" d="M50.5,47.19a1.71,1.71,0,0,1-1.71,1.71H47.32c-.9,0-1.35-.54-1.35-1.61V44.23H45a.13.13,0,0,1-.15-.15V44a.13.13,0,0,1,.15-.15h1.21a.13.13,0,0,1,.15.15v3.22a2.68,2.68,0,0,0,.06.61,1,1,0,0,0,.21.42.86.86,0,0,0,.35.23,1.58,1.58,0,0,0,.52.08h1.14a1.43,1.43,0,0,0,1-.37,1.3,1.3,0,0,0,.38-1v-3h-.44L48.05,45.9a.13.13,0,0,1-.21,0l-.08-.08c-.07-.07-.07-.13,0-.21l1.7-1.81h.89a.13.13,0,0,1,.15.15Z"/><path class="cls-2" d="M57.1,47.19a1.69,1.69,0,0,1-.48,1.22,1.58,1.58,0,0,1-1.19.49H54A1.39,1.39,0,0,1,53,48.45a1.74,1.74,0,0,1-.41-1.19v-3H51.7a.13.13,0,0,1-.15-.15V44a.13.13,0,0,1,.15-.15H57a.13.13,0,0,1,.15.15Zm-.42-3H53v3c0,.89.42,1.34,1.24,1.34h1.14a1.27,1.27,0,0,0,1.34-1.34Z"/><path class="cls-2" d="M59.83,46.27a.13.13,0,0,1-.15.15h-.12a.13.13,0,0,1-.15-.15v-2H58.3a.13.13,0,0,1-.15-.15V44a.13.13,0,0,1,.15-.15h1.38a.13.13,0,0,1,.15.15Z"/><path class="cls-2" d="M65,47.19a1.62,1.62,0,0,1-.5,1.21,1.6,1.6,0,0,1-1.2.5h-1.2a.13.13,0,0,1-.15-.15v-.08a.13.13,0,0,1,.15-.15h1.14a1.3,1.3,0,0,0,1-.37,1.26,1.26,0,0,0,.38-1v-3H61c-.11,0-.16,0-.16-.15v-1.4c0-.1,0-.15.16-.15h.1a.13.13,0,0,1,.15.15v1.13h3.57A.13.13,0,0,1,65,44Z"/><path class="cls-2" d="M67.8,48.75a.13.13,0,0,1-.15.15h-.12a.13.13,0,0,1-.15-.15V44.23H66.17a.13.13,0,0,1-.15-.15V44a.13.13,0,0,1,.15-.15h1.48a.13.13,0,0,1,.15.15Z"/><path class="cls-2" d="M73.84,48.75c0,.1,0,.15-.14.15h-.13a.13.13,0,0,1-.15-.15V44.23H69.33c-.11,0-.16,0-.16-.15V44c0-.1,0-.15.16-.15H73.7c.09,0,.14,0,.14.15Zm-3.76,0c0,.1,0,.15-.14.15h-.13a.13.13,0,0,1-.15-.15V46a.13.13,0,0,1,.15-.15h.13c.09,0,.14,0,.14.15Z"/><path class="cls-2" d="M82.58,48.75a.13.13,0,0,1-.15.15H82.3c-.09,0-.14,0-.14-.15V44.23H78.9V47.6c0,.87-.41,1.3-1.22,1.3H77.2a.14.14,0,0,1-.16-.15v-.08a.14.14,0,0,1,.16-.15h.39a.8.8,0,0,0,.89-.91V44.23H77.35c-.1,0-.14,0-.14-.15V44c0-.1,0-.15.14-.15h5.08a.13.13,0,0,1,.15.15Z"/><path class="cls-2" d="M87.78,47.19a1.66,1.66,0,0,1-.5,1.21,1.62,1.62,0,0,1-1.21.5H84.88a.13.13,0,0,1-.15-.15v-.08a.13.13,0,0,1,.15-.15H86a1.3,1.3,0,0,0,1-.37,1.26,1.26,0,0,0,.38-1v-3H83.8a.13.13,0,0,1-.15-.15v-1.4a.13.13,0,0,1,.15-.15h.11a.13.13,0,0,1,.15.15v1.13h3.57a.13.13,0,0,1,.15.15Z"/><path class="cls-2" d="M93.74,48.75c0,.1,0,.15-.14.15H89.28a.13.13,0,0,1-.15-.15v-.08a.13.13,0,0,1,.15-.15h4V45.47a1.09,1.09,0,0,0-1.23-1.24H90.3v2.23a.13.13,0,0,1-.15.15H90a.13.13,0,0,1-.15-.15V44.23H89a.13.13,0,0,1-.15-.15V44a.13.13,0,0,1,.15-.15h3.13a1.61,1.61,0,0,1,1.17.42,1.56,1.56,0,0,1,.43,1.18Z"/><path class="cls-2" d="M100.38,47.19a1.62,1.62,0,0,1-.5,1.21,1.6,1.6,0,0,1-1.2.5H97.21c-.91,0-1.36-.54-1.36-1.61V44.23h-.93a.14.14,0,0,1-.16-.15V44a.14.14,0,0,1,.16-.15h1.21c.09,0,.14,0,.14.15v3.22a2.18,2.18,0,0,0,.07.61,1,1,0,0,0,.2.42.86.86,0,0,0,.35.23,1.64,1.64,0,0,0,.53.08h1.13a1.42,1.42,0,0,0,1-.37,1.26,1.26,0,0,0,.38-1v-3h-.43l-1.6,1.67a.13.13,0,0,1-.21,0l-.07-.08c-.08-.07-.08-.13,0-.21l1.69-1.81h.89a.13.13,0,0,1,.15.15Z"/><path class="cls-2" d="M107.09,48.75a.13.13,0,0,1-.15.15h-2.67a.13.13,0,0,1-.15-.15v-.08a.13.13,0,0,1,.15-.15h2.4v-3a1.18,1.18,0,0,0-1.33-1.34h-1a1.48,1.48,0,0,0-1,.33,1.35,1.35,0,0,0-.39,1v3.15c0,.1,0,.15-.14.15h-.13a.13.13,0,0,1-.15-.15V44.23h-1a.14.14,0,0,1-.16-.15V44a.14.14,0,0,1,.16-.15h1.24c.09,0,.14,0,.14.15v.68a1.49,1.49,0,0,1,1.45-.83h1.06a1.4,1.4,0,0,1,1.6,1.56Z"/><path class="cls-2" d="M62.48,39.81c0,.29-.14.43-.41.43H49.94a.37.37,0,0,1-.42-.43v-.22a.37.37,0,0,1,.42-.42h9.33v-12h-9c-.27,0-.41-.14-.41-.43V26.4A.37.37,0,0,1,50.3,26H60a.37.37,0,0,1,.42.41V39.17h1.63a.37.37,0,0,1,.41.42Z"/><path class="cls-2" d="M78.05,39.81c0,.29-.13.43-.41.43H77.3a.37.37,0,0,1-.42-.43V27.17H65.41a.38.38,0,0,1-.43-.43V26.4c0-.27.14-.41.43-.41H77.64a.36.36,0,0,1,.41.41Zm-10.52,0c0,.29-.14.43-.41.43h-.35a.37.37,0,0,1-.42-.43V32.09a.37.37,0,0,1,.42-.42h.35a.37.37,0,0,1,.41.42Z"/><path class="cls-2" d="M92.65,35.45a4.78,4.78,0,0,1-4.78,4.79H84.53a.37.37,0,0,1-.42-.43v-.22a.37.37,0,0,1,.42-.42h3.19a3.74,3.74,0,0,0,2.69-1,3.65,3.65,0,0,0,1.07-2.72V27.17h-10a.37.37,0,0,1-.42-.43V22.82a.37.37,0,0,1,.42-.42h.3a.38.38,0,0,1,.43.42V26h10a.37.37,0,0,1,.42.41Z"/><path class="cls-3" d="M66,52.18a31.13,31.13,0,0,1-5.88,7.68,30.49,30.49,0,0,1-8,5.42,29.75,29.75,0,0,1-9.41,2.51,30.93,30.93,0,0,1-9.73-.63c-.79-.22-1.6-.36-2.37-.64l-2.31-.82a33.9,33.9,0,0,1-4.35-2.27A31.25,31.25,0,0,1,16.54,57a30.67,30.67,0,0,1-4.89-8.48A28.71,28.71,0,0,1,9.72,38.9,30.4,30.4,0,0,1,11,29.19,31.31,31.31,0,0,1,15.3,20.4a29.11,29.11,0,0,1,6.9-6.93,30.51,30.51,0,0,1,8.74-4.38,32.72,32.72,0,0,1,9.68-1.26,29.35,29.35,0,0,1,9.55,1.86A30,30,0,0,1,65,21.8,29.82,29.82,0,0,0,50,10.15a29,29,0,0,0-9.4-1.69,31.7,31.7,0,0,0-9.43,1.37A29.92,29.92,0,0,0,16,20.93a30.43,30.43,0,0,0-4.16,8.53,29.33,29.33,0,0,0-1.16,9.41,27.66,27.66,0,0,0,1.82,9.3,30,30,0,0,0,4.7,8.25,29.56,29.56,0,0,0,34.64,8.42A30.36,30.36,0,0,0,60,59.68,31.06,31.06,0,0,0,66,52.18Z"/><path class="cls-3" d="M41.3,61.12a38.48,38.48,0,0,1-7.49-.47,22.25,22.25,0,0,1-7.17-2.45A17.85,17.85,0,0,1,23.53,56,16.26,16.26,0,0,1,21,53.08a24.86,24.86,0,0,1-1.87-3.29,23,23,0,0,1-1.24-3.55,29.63,29.63,0,0,0,3.73,6.38,17.65,17.65,0,0,0,5.47,4.71A26.34,26.34,0,0,0,34,59.9c1.19.29,2.41.5,3.64.69S40.07,60.94,41.3,61.12Z"/><path class="cls-3" d="M26.23,48.74a12.82,12.82,0,0,0,2,2.53,12.2,12.2,0,0,0,2.49,1.87,13.64,13.64,0,0,0,2.9,1.2c.5.18,1,.25,1.56.4s1.07.18,1.61.32c-.54.08-1.1.14-1.66.17a11.88,11.88,0,0,1-1.68-.13A9.59,9.59,0,0,1,30.23,54a8.65,8.65,0,0,1-2.58-2.23A6.86,6.86,0,0,1,26.23,48.74Z"/></svg>